# xmcd
#
# Track frame offsets:
#	150
#	17881
#	31026
#	47519
#	65166
#	83906
#	99696
#	117361
#	132771
#	153098
#	168484
#	186768
#	204235
#	218387
#
# Disc length: 3114 seconds
#
# Revision: 1
# Processed by: cddbd v1.5.2PL0 Copyright (c) Steve Scherf et al.
# Submitted via: audiograbber 1.83.01
#
DISCID=b10c280e
DTITLE=Luke Bryan - Spring Break... Here To Party
DYEAR=2013
DGENRE=Country
TTITLE0=Suntan City
TTITLE1=Just A Sip
TTITLE2=Buzzkill
TTITLE3=If You Ain't Here To Party
TTITLE4=Little Bit Later On
TTITLE5=In Love With The Girl
TTITLE6=Shore Thing
TTITLE7=Sorority Girl
TTITLE8=Shake The Sand
TTITLE9=Love In A College Town
TTITLE10=Wild Weekend
TTITLE11=Cold Beer Drinker
TTITLE12=Spring Break-Up
TTITLE13=Take My Drunk A** Home
EXTD=
EXTT0=
EXTT1=
EXTT2=
EXTT3=
EXTT4=
EXTT5=
EXTT6=
EXTT7=
EXTT8=
EXTT9=
EXTT10=
EXTT11=
EXTT12=
EXTT13=
PLAYORDER=
